<svg class="border shadow-md" viewBox="0 0 1802.24 901.12" style="width: 1802.24px; height: 901.12px;" xmlns="http://www.w3.org/2000/svg" preserveAspectRatio="none"><rect class="bg" id="bg" x="0" y="0" width="1802.24" height="901.12" fill="#ffffff"/><rect x="-20" y="2.681904761904762" width="180.224" height="16.091428571428573" rx="8.045714285714286" fill="#FA8072" opacity="0.5"/><rect x="170.224" y="2.681904761904762" width="480" height="16.091428571428573" rx="8.045714285714286" fill="#FA8072" opacity="0.5"/><rect x="660.2239999999999" y="2.681904761904762" width="555" height="16.091428571428573" rx="8.045714285714286" fill="#FA8072" opacity="0.5"/><rect x="1225.224" y="2.681904761904762" width="180.224" height="16.091428571428573" rx="8.045714285714286" fill="#FA8072" opacity="0.5"/><rect x="1415.4479999999999" y="2.681904761904762" width="180.224" height="16.091428571428573" rx="8.045714285714286" fill="#FA8072" opacity="0.5"/><rect x="1605.6719999999998" y="2.681904761904762" width="180.224" height="16.091428571428573" rx="8.045714285714286" fill="#87CEEB" opacity="0.5"/><rect x="1795.8959999999997" y="2.681904761904762" width="183" height="16.091428571428573" rx="8.045714285714286" fill="#FA8072" opacity="0.5"/><rect x="-20" y="24.137142857142855" width="238" height="16.091428571428573" rx="8.045714285714286" fill="#87CEEB" opacity="0.5"/><rect x="228" y="24.137142857142855" width="180.224" height="16.091428571428573" rx="8.045714285714286" fill="#FA8072" opacity="0.5"/><rect x="418.224" y="24.137142857142855" width="207" height="16.091428571428573" rx="8.045714285714286" fill="#FA8072" opacity="0.5"/><rect x="635.2239999999999" y="24.137142857142855" width="180.224" height="16.091428571428573" rx="8.045714285714286" fill="#FA8072" opacity="0.5"/><rect x="825.4479999999999" y="24.137142857142855" width="285" height="16.091428571428573" rx="8.045714285714286" fill="#FA8072" opacity="0.5"/><rect x="1120.4479999999999" y="24.137142857142855" width="498" height="16.091428571428573" rx="8.045714285714286" fill="#FA8072" opacity="0.5"/><rect x="1628.4479999999999" y="24.137142857142855" width="196" height="16.091428571428573" rx="8.045714285714286" fill="#FA8072" opacity="0.5"/><rect x="-20" y="45.59238095238095" width="180.224" height="16.091428571428573" rx="8.045714285714286" fill="#FA8072" opacity="0.5"/><rect x="170.224" y="45.59238095238095" width="391" height="16.091428571428573" rx="8.045714285714286" fill="#87CEEB" opacity="0.5"/><rect x="571.2239999999999" y="45.59238095238095" width="516" height="16.091428571428573" rx="8.045714285714286" fill="#87CEEB" opacity="0.5"/><rect x="1097.224" y="45.59238095238095" width="180.224" height="16.091428571428573" rx="8.045714285714286" fill="#FA8072" opacity="0.5"/><rect x="1287.4479999999999" y="45.59238095238095" width="248" height="16.091428571428573" rx="8.045714285714286" fill="#87CEEB" opacity="0.5"/><rect x="1545.4479999999999" y="45.59238095238095" width="379" height="16.091428571428573" rx="8.045714285714286" fill="#87CEEB" opacity="0.5"/><rect x="-20" y="67.04761904761905" width="180.224" height="16.091428571428573" rx="8.045714285714286" fill="#FA8072" opacity="0.5"/><rect x="170.224" y="67.04761904761905" width="474" height="16.091428571428573" rx="8.045714285714286" fill="#87CEEB" opacity="0.5"/><rect x="654.2239999999999" y="67.04761904761905" width="341" height="16.091428571428573" rx="8.045714285714286" fill="#FA8072" opacity="0.5"/><rect x="1005.2239999999999" y="67.04761904761905" width="180.224" height="16.091428571428573" rx="8.045714285714286" fill="#FA8072" opacity="0.5"/><rect x="1195.4479999999999" y="67.04761904761905" width="208" height="16.091428571428573" rx="8.045714285714286" fill="#FA8072" opacity="0.5"/><rect x="1413.4479999999999" y="67.04761904761905" width="301" height="16.091428571428573" rx="8.045714285714286" fill="#FA8072" opacity="0.5"/><rect x="1724.4479999999999" y="67.04761904761905" width="196" height="16.091428571428573" rx="8.045714285714286" fill="#FA8072" opacity="0.5"/><rect x="-20" y="88.50285714285714" width="243" height="16.091428571428573" rx="8.045714285714286" fill="#FA8072" opacity="0.5"/><rect x="233" y="88.50285714285714" width="428" height="16.091428571428573" rx="8.045714285714286" fill="#87CEEB" opacity="0.5"/><rect x="671" y="88.50285714285714" width="487" height="16.091428571428573" rx="8.045714285714286" fill="#FA8072" opacity="0.5"/><rect x="1168" y="88.50285714285714" width="461" height="16.091428571428573" rx="8.045714285714286" fill="#FA8072" opacity="0.5"/><rect x="1639" y="88.50285714285714" width="203" height="16.091428571428573" rx="8.045714285714286" fill="#FA8072" opacity="0.5"/><rect x="-20" y="109.95809523809523" width="529" height="16.091428571428573" rx="8.045714285714286" fill="#87CEEB" opacity="0.5"/><rect x="519" y="109.95809523809523" width="317" height="16.091428571428573" rx="8.045714285714286" fill="#FA8072" opacity="0.5"/><rect x="846" y="109.95809523809523" width="331" height="16.091428571428573" rx="8.045714285714286" fill="#FA8072" opacity="0.5"/><rect x="1187" y="109.95809523809523" width="180.224" height="16.091428571428573" rx="8.045714285714286" fill="#87CEEB" opacity="0.5"/><rect x="1377.224" y="109.95809523809523" width="422" height="16.091428571428573" rx="8.045714285714286" fill="#87CEEB" opacity="0.5"/><rect x="1809.224" y="109.95809523809523" width="185" height="16.091428571428573" rx="8.045714285714286" fill="#FA8072" opacity="0.5"/><rect x="-20" y="131.41333333333336" width="180.224" height="16.091428571428573" rx="8.045714285714286" fill="#87CEEB" opacity="0.5"/><rect x="170.224" y="131.41333333333336" width="442" height="16.091428571428573" rx="8.045714285714286" fill="#87CEEB" opacity="0.5"/><rect x="622.2239999999999" y="131.41333333333336" width="462" height="16.091428571428573" rx="8.045714285714286" fill="#FA8072" opacity="0.5"/><rect x="1094.224" y="131.41333333333336" width="336" height="16.091428571428573" rx="8.045714285714286" fill="#87CEEB" opacity="0.5"/><rect x="1440.224" y="131.41333333333336" width="237" height="16.091428571428573" rx="8.045714285714286" fill="#FA8072" opacity="0.5"/><rect x="1687.224" y="131.41333333333336" width="180.224" height="16.091428571428573" rx="8.045714285714286" fill="#87CEEB" opacity="0.5"/><rect x="-20" y="152.86857142857144" width="180.224" height="16.091428571428573" rx="8.045714285714286" fill="#87CEEB" opacity="0.5"/><rect x="170.224" y="152.86857142857144" width="180.224" height="16.091428571428573" rx="8.045714285714286" fill="#FA8072" opacity="0.5"/><rect x="360.448" y="152.86857142857144" width="206" height="16.091428571428573" rx="8.045714285714286" fill="#87CEEB" opacity="0.5"/><rect x="576.448" y="152.86857142857144" width="180.224" height="16.091428571428573" rx="8.045714285714286" fill="#87CEEB" opacity="0.5"/><rect x="766.672" y="152.86857142857144" width="374" height="16.091428571428573" rx="8.045714285714286" fill="#FA8072" opacity="0.5"/><rect x="1150.672" y="152.86857142857144" width="216" height="16.091428571428573" rx="8.045714285714286" fill="#87CEEB" opacity="0.5"/><rect x="1376.672" y="152.86857142857144" width="579" height="16.091428571428573" rx="8.045714285714286" fill="#FA8072" opacity="0.5"/><rect x="-20" y="174.32380952380953" width="180.224" height="16.091428571428573" rx="8.045714285714286" fill="#FA8072" opacity="0.5"/><rect x="170.224" y="174.32380952380953" width="272" height="16.091428571428573" rx="8.045714285714286" fill="#FA8072" opacity="0.5"/><rect x="452.224" y="174.32380952380953" width="551" height="16.091428571428573" rx="8.045714285714286" fill="#FA8072" opacity="0.5"/><rect x="1013.2239999999999" y="174.32380952380953" width="351" height="16.091428571428573" rx="8.045714285714286" fill="#FA8072" opacity="0.5"/><rect x="1374.224" y="174.32380952380953" width="324" height="16.091428571428573" rx="8.045714285714286" fill="#87CEEB" opacity="0.5"/><rect x="1708.224" y="174.32380952380953" width="180.224" height="16.091428571428573" rx="8.045714285714286" fill="#87CEEB" opacity="0.5"/><rect x="-20" y="195.77904761904762" width="180.224" height="16.091428571428573" rx="8.045714285714286" fill="#87CEEB" opacity="0.5"/><rect x="170.224" y="195.77904761904762" width="180.224" height="16.091428571428573" rx="8.045714285714286" fill="#87CEEB" opacity="0.5"/><rect x="360.448" y="195.77904761904762" width="180.224" height="16.091428571428573" rx="8.045714285714286" fill="#87CEEB" opacity="0.5"/><rect x="550.672" y="195.77904761904762" width="556" height="16.091428571428573" rx="8.045714285714286" fill="#FA8072" opacity="0.5"/><rect x="1116.672" y="195.77904761904762" width="203" height="16.091428571428573" rx="8.045714285714286" fill="#FA8072" opacity="0.5"/><rect x="1329.672" y="195.77904761904762" width="205" height="16.091428571428573" rx="8.045714285714286" fill="#87CEEB" opacity="0.5"/><rect x="1544.672" y="195.77904761904762" width="485" height="16.091428571428573" rx="8.045714285714286" fill="#FA8072" opacity="0.5"/><rect x="-20" y="217.2342857142857" width="368" height="16.091428571428573" rx="8.045714285714286" fill="#87CEEB" opacity="0.5"/><rect x="358" y="217.2342857142857" width="185" height="16.091428571428573" rx="8.045714285714286" fill="#FA8072" opacity="0.5"/><rect x="553" y="217.2342857142857" width="180.224" height="16.091428571428573" rx="8.045714285714286" fill="#FA8072" opacity="0.5"/><rect x="743.2239999999999" y="217.2342857142857" width="185" height="16.091428571428573" rx="8.045714285714286" fill="#FA8072" opacity="0.5"/><rect x="938.2239999999999" y="217.2342857142857" width="343" height="16.091428571428573" rx="8.045714285714286" fill="#FA8072" opacity="0.5"/><rect x="1291.224" y="217.2342857142857" width="389" height="16.091428571428573" rx="8.045714285714286" fill="#87CEEB" opacity="0.5"/><rect x="1690.224" y="217.2342857142857" width="219" height="16.091428571428573" rx="8.045714285714286" fill="#87CEEB" opacity="0.5"/><rect x="-20" y="238.68952380952382" width="180.224" height="16.091428571428573" rx="8.045714285714286" fill="#FA8072" opacity="0.5"/><rect x="170.224" y="238.68952380952382" width="563" height="16.091428571428573" rx="8.045714285714286" fill="#FA8072" opacity="0.5"/><rect x="743.2239999999999" y="238.68952380952382" width="180.224" height="16.091428571428573" rx="8.045714285714286" fill="#FA8072" opacity="0.5"/><rect x="933.4479999999999" y="238.68952380952382" width="218" height="16.091428571428573" rx="8.045714285714286" fill="#FA8072" opacity="0.5"/><rect x="1161.4479999999999" y="238.68952380952382" width="194" height="16.091428571428573" rx="8.045714285714286" fill="#87CEEB" opacity="0.5"/><rect x="1365.4479999999999" y="238.68952380952382" width="180.224" height="16.091428571428573" rx="8.045714285714286" fill="#FA8072" opacity="0.5"/><rect x="1555.6719999999998" y="238.68952380952382" width="273" height="16.091428571428573" rx="8.045714285714286" fill="#FA8072" opacity="0.5"/><rect x="-20" y="260.14476190476194" width="180.224" height="16.091428571428573" rx="8.045714285714286" fill="#FA8072" opacity="0.5"/><rect x="170.224" y="260.14476190476194" width="336" height="16.091428571428573" rx="8.045714285714286" fill="#FA8072" opacity="0.5"/><rect x="516.2239999999999" y="260.14476190476194" width="571" height="16.091428571428573" rx="8.045714285714286" fill="#87CEEB" opacity="0.5"/><rect x="1097.224" y="260.14476190476194" width="180.224" height="16.091428571428573" rx="8.045714285714286" fill="#FA8072" opacity="0.5"/><rect x="1287.4479999999999" y="260.14476190476194" width="180.224" height="16.091428571428573" rx="8.045714285714286" fill="#FA8072" opacity="0.5"/><rect x="1477.6719999999998" y="260.14476190476194" width="509" height="16.091428571428573" rx="8.045714285714286" fill="#87CEEB" opacity="0.5"/><rect x="-20" y="281.6" width="180.224" height="16.091428571428573" rx="8.045714285714286" fill="#FA8072" opacity="0.5"/><rect x="170.224" y="281.6" width="180.224" height="16.091428571428573" rx="8.045714285714286" fill="#FA8072" opacity="0.5"/><rect x="360.448" y="281.6" width="299" height="16.091428571428573" rx="8.045714285714286" fill="#FA8072" opacity="0.5"/><rect x="669.448" y="281.6" width="264" height="16.091428571428573" rx="8.045714285714286" fill="#87CEEB" opacity="0.5"/><rect x="943.448" y="281.6" width="180.224" height="16.091428571428573" rx="8.045714285714286" fill="#87CEEB" opacity="0.5"/><rect x="1133.672" y="281.6" width="510" height="16.091428571428573" rx="8.045714285714286" fill="#87CEEB" opacity="0.5"/><rect x="1653.672" y="281.6" width="180.224" height="16.091428571428573" rx="8.045714285714286" fill="#FA8072" opacity="0.5"/><rect x="-20" y="303.0552380952381" width="180.224" height="16.091428571428573" rx="8.045714285714286" fill="#FA8072" opacity="0.5"/><rect x="170.224" y="303.0552380952381" width="180.224" height="16.091428571428573" rx="8.045714285714286" fill="#FA8072" opacity="0.5"/><rect x="360.448" y="303.0552380952381" width="292" height="16.091428571428573" rx="8.045714285714286" fill="#FA8072" opacity="0.5"/><rect x="662.448" y="303.0552380952381" width="180.224" height="16.091428571428573" rx="8.045714285714286" fill="#87CEEB" opacity="0.5"/><rect x="852.672" y="303.0552380952381" width="180.224" height="16.091428571428573" rx="8.045714285714286" fill="#87CEEB" opacity="0.5"/><rect x="1042.896" y="303.0552380952381" width="306" height="16.091428571428573" rx="8.045714285714286" fill="#87CEEB" opacity="0.5"/><rect x="1358.896" y="303.0552380952381" width="389" height="16.091428571428573" rx="8.045714285714286" fill="#FA8072" opacity="0.5"/><rect x="1757.896" y="303.0552380952381" width="180.224" height="16.091428571428573" rx="8.045714285714286" fill="#87CEEB" opacity="0.5"/><rect x="-20" y="324.5104761904762" width="314" height="16.091428571428573" rx="8.045714285714286" fill="#FA8072" opacity="0.5"/><rect x="304" y="324.5104761904762" width="329" height="16.091428571428573" rx="8.045714285714286" fill="#FA8072" opacity="0.5"/><rect x="643" y="324.5104761904762" width="483" height="16.091428571428573" rx="8.045714285714286" fill="#FA8072" opacity="0.5"/><rect x="1136" y="324.5104761904762" width="180.224" height="16.091428571428573" rx="8.045714285714286" fill="#FA8072" opacity="0.5"/><rect x="1326.224" y="324.5104761904762" width="180.224" height="16.091428571428573" rx="8.045714285714286" fill="#87CEEB" opacity="0.5"/><rect x="1516.4479999999999" y="324.5104761904762" width="193" height="16.091428571428573" rx="8.045714285714286" fill="#FA8072" opacity="0.5"/><rect x="1719.4479999999999" y="324.5104761904762" width="180.224" height="16.091428571428573" rx="8.045714285714286" fill="#FA8072" opacity="0.5"/><rect x="-20" y="345.9657142857143" width="180.224" height="16.091428571428573" rx="8.045714285714286" fill="#87CEEB" opacity="0.5"/><rect x="170.224" y="345.9657142857143" width="180.224" height="16.091428571428573" rx="8.045714285714286" fill="#87CEEB" opacity="0.5"/><rect x="360.448" y="345.9657142857143" width="333" height="16.091428571428573" rx="8.045714285714286" fill="#FA8072" opacity="0.5"/><rect x="703.448" y="345.9657142857143" width="416" height="16.091428571428573" rx="8.045714285714286" fill="#FA8072" opacity="0.5"/><rect x="1129.4479999999999" y="345.9657142857143" width="278" height="16.091428571428573" rx="8.045714285714286" fill="#87CEEB" opacity="0.5"/><rect x="1417.4479999999999" y="345.9657142857143" width="180.224" height="16.091428571428573" rx="8.045714285714286" fill="#FA8072" opacity="0.5"/><rect x="1607.6719999999998" y="345.9657142857143" width="264" height="16.091428571428573" rx="8.045714285714286" fill="#87CEEB" opacity="0.5"/><rect x="-20" y="367.4209523809524" width="210" height="16.091428571428573" rx="8.045714285714286" fill="#FA8072" opacity="0.5"/><rect x="200" y="367.4209523809524" width="359" height="16.091428571428573" rx="8.045714285714286" fill="#87CEEB" opacity="0.5"/><rect x="569" y="367.4209523809524" width="301" height="16.091428571428573" rx="8.045714285714286" fill="#87CEEB" opacity="0.5"/><rect x="880" y="367.4209523809524" width="180.224" height="16.091428571428573" rx="8.045714285714286" fill="#87CEEB" opacity="0.5"/><rect x="1070.224" y="367.4209523809524" width="265" height="16.091428571428573" rx="8.045714285714286" fill="#FA8072" opacity="0.5"/><rect x="1345.224" y="367.4209523809524" width="208" height="16.091428571428573" rx="8.045714285714286" fill="#FA8072" opacity="0.5"/><rect x="1563.224" y="367.4209523809524" width="180.224" height="16.091428571428573" rx="8.045714285714286" fill="#FA8072" opacity="0.5"/><rect x="1753.4479999999999" y="367.4209523809524" width="263" height="16.091428571428573" rx="8.045714285714286" fill="#87CEEB" opacity="0.5"/><rect x="-20" y="388.87619047619046" width="446" height="16.091428571428573" rx="8.045714285714286" fill="#FA8072" opacity="0.5"/><rect x="436" y="388.87619047619046" width="344" height="16.091428571428573" rx="8.045714285714286" fill="#FA8072" opacity="0.5"/><rect x="790" y="388.87619047619046" width="358" height="16.091428571428573" rx="8.045714285714286" fill="#87CEEB" opacity="0.5"/><rect x="1158" y="388.87619047619046" width="180.224" height="16.091428571428573" rx="8.045714285714286" fill="#FA8072" opacity="0.5"/><rect x="1348.224" y="388.87619047619046" width="326" height="16.091428571428573" rx="8.045714285714286" fill="#87CEEB" opacity="0.5"/><rect x="1684.224" y="388.87619047619046" width="180.224" height="16.091428571428573" rx="8.045714285714286" fill="#87CEEB" opacity="0.5"/><rect x="-20" y="410.33142857142855" width="524" height="16.091428571428573" rx="8.045714285714286" fill="#FA8072" opacity="0.5"/><rect x="514" y="410.33142857142855" width="304" height="16.091428571428573" rx="8.045714285714286" fill="#FA8072" opacity="0.5"/><rect x="828" y="410.33142857142855" width="180.224" height="16.091428571428573" rx="8.045714285714286" fill="#FA8072" opacity="0.5"/><rect x="1018.2239999999999" y="410.33142857142855" width="180.224" height="16.091428571428573" rx="8.045714285714286" fill="#FA8072" opacity="0.5"/><rect x="1208.4479999999999" y="410.33142857142855" width="445" height="16.091428571428573" rx="8.045714285714286" fill="#FA8072" opacity="0.5"/><rect x="1663.4479999999999" y="410.33142857142855" width="375" height="16.091428571428573" rx="8.045714285714286" fill="#87CEEB" opacity="0.5"/><rect x="-20" y="431.78666666666663" width="461" height="16.091428571428573" rx="8.045714285714286" fill="#87CEEB" opacity="0.5"/><rect x="451" y="431.78666666666663" width="321" height="16.091428571428573" rx="8.045714285714286" fill="#87CEEB" opacity="0.5"/><rect x="782" y="431.78666666666663" width="487" height="16.091428571428573" rx="8.045714285714286" fill="#87CEEB" opacity="0.5"/><rect x="1279" y="431.78666666666663" width="396" height="16.091428571428573" rx="8.045714285714286" fill="#FA8072" opacity="0.5"/><rect x="1685" y="431.78666666666663" width="321" height="16.091428571428573" rx="8.045714285714286" fill="#FA8072" opacity="0.5"/><rect x="-20" y="453.2419047619048" width="180.224" height="16.091428571428573" rx="8.045714285714286" fill="#FA8072" opacity="0.5"/><rect x="170.224" y="453.2419047619048" width="331" height="16.091428571428573" rx="8.045714285714286" fill="#87CEEB" opacity="0.5"/><rect x="511.224" y="453.2419047619048" width="180.224" height="16.091428571428573" rx="8.045714285714286" fill="#FA8072" opacity="0.5"/><rect x="701.448" y="453.2419047619048" width="180.224" height="16.091428571428573" rx="8.045714285714286" fill="#87CEEB" opacity="0.5"/><rect x="891.672" y="453.2419047619048" width="386" height="16.091428571428573" rx="8.045714285714286" fill="#FA8072" opacity="0.5"/><rect x="1287.672" y="453.2419047619048" width="180.224" height="16.091428571428573" rx="8.045714285714286" fill="#FA8072" opacity="0.5"/><rect x="1477.896" y="453.2419047619048" width="277" height="16.091428571428573" rx="8.045714285714286" fill="#87CEEB" opacity="0.5"/><rect x="1764.896" y="453.2419047619048" width="362" height="16.091428571428573" rx="8.045714285714286" fill="#FA8072" opacity="0.5"/><rect x="-20" y="474.69714285714286" width="256" height="16.091428571428573" rx="8.045714285714286" fill="#FA8072" opacity="0.5"/><rect x="246" y="474.69714285714286" width="236" height="16.091428571428573" rx="8.045714285714286" fill="#FA8072" opacity="0.5"/><rect x="492" y="474.69714285714286" width="318" height="16.091428571428573" rx="8.045714285714286" fill="#87CEEB" opacity="0.5"/><rect x="820" y="474.69714285714286" width="180.224" height="16.091428571428573" rx="8.045714285714286" fill="#FA8072" opacity="0.5"/><rect x="1010.2239999999999" y="474.69714285714286" width="391" height="16.091428571428573" rx="8.045714285714286" fill="#87CEEB" opacity="0.5"/><rect x="1411.224" y="474.69714285714286" width="531" height="16.091428571428573" rx="8.045714285714286" fill="#FA8072" opacity="0.5"/><rect x="-20" y="496.15238095238095" width="180.224" height="16.091428571428573" rx="8.045714285714286" fill="#87CEEB" opacity="0.5"/><rect x="170.224" y="496.15238095238095" width="294" height="16.091428571428573" rx="8.045714285714286" fill="#FA8072" opacity="0.5"/><rect x="474.224" y="496.15238095238095" width="526" height="16.091428571428573" rx="8.045714285714286" fill="#FA8072" opacity="0.5"/><rect x="1010.2239999999999" y="496.15238095238095" width="180.224" height="16.091428571428573" rx="8.045714285714286" fill="#FA8072" opacity="0.5"/><rect x="1200.4479999999999" y="496.15238095238095" width="180.224" height="16.091428571428573" rx="8.045714285714286" fill="#87CEEB" opacity="0.5"/><rect x="1390.6719999999998" y="496.15238095238095" width="221" height="16.091428571428573" rx="8.045714285714286" fill="#FA8072" opacity="0.5"/><rect x="1621.6719999999998" y="496.15238095238095" width="345" height="16.091428571428573" rx="8.045714285714286" fill="#FA8072" opacity="0.5"/><rect x="-20" y="517.6076190476191" width="352" height="16.091428571428573" rx="8.045714285714286" fill="#87CEEB" opacity="0.5"/><rect x="342" y="517.6076190476191" width="499" height="16.091428571428573" rx="8.045714285714286" fill="#FA8072" opacity="0.5"/><rect x="851" y="517.6076190476191" width="456" height="16.091428571428573" rx="8.045714285714286" fill="#FA8072" opacity="0.5"/><rect x="1317" y="517.6076190476191" width="249" height="16.091428571428573" rx="8.045714285714286" fill="#87CEEB" opacity="0.5"/><rect x="1576" y="517.6076190476191" width="180.224" height="16.091428571428573" rx="8.045714285714286" fill="#FA8072" opacity="0.5"/><rect x="1766.224" y="517.6076190476191" width="183" height="16.091428571428573" rx="8.045714285714286" fill="#FA8072" opacity="0.5"/><rect x="-20" y="539.0628571428572" width="180.224" height="16.091428571428573" rx="8.045714285714286" fill="#87CEEB" opacity="0.5"/><rect x="170.224" y="539.0628571428572" width="276" height="16.091428571428573" rx="8.045714285714286" fill="#87CEEB" opacity="0.5"/><rect x="456.224" y="539.0628571428572" width="180.224" height="16.091428571428573" rx="8.045714285714286" fill="#FA8072" opacity="0.5"/><rect x="646.448" y="539.0628571428572" width="353" height="16.091428571428573" rx="8.045714285714286" fill="#FA8072" opacity="0.5"/><rect x="1009.448" y="539.0628571428572" width="443" height="16.091428571428573" rx="8.045714285714286" fill="#FA8072" opacity="0.5"/><rect x="1462.4479999999999" y="539.0628571428572" width="510" height="16.091428571428573" rx="8.045714285714286" fill="#87CEEB" opacity="0.5"/><rect x="-20" y="560.5180952380953" width="396" height="16.091428571428573" rx="8.045714285714286" fill="#FA8072" opacity="0.5"/><rect x="386" y="560.5180952380953" width="287" height="16.091428571428573" rx="8.045714285714286" fill="#87CEEB" opacity="0.5"/><rect x="683" y="560.5180952380953" width="473" height="16.091428571428573" rx="8.045714285714286" fill="#87CEEB" opacity="0.5"/><rect x="1166" y="560.5180952380953" width="180.224" height="16.091428571428573" rx="8.045714285714286" fill="#FA8072" opacity="0.5"/><rect x="1356.224" y="560.5180952380953" width="180.224" height="16.091428571428573" rx="8.045714285714286" fill="#FA8072" opacity="0.5"/><rect x="1546.4479999999999" y="560.5180952380953" width="380" height="16.091428571428573" rx="8.045714285714286" fill="#87CEEB" opacity="0.5"/><rect x="-20" y="581.9733333333334" width="185" height="16.091428571428573" rx="8.045714285714286" fill="#87CEEB" opacity="0.5"/><rect x="175" y="581.9733333333334" width="438" height="16.091428571428573" rx="8.045714285714286" fill="#FA8072" opacity="0.5"/><rect x="623" y="581.9733333333334" width="333" height="16.091428571428573" rx="8.045714285714286" fill="#FA8072" opacity="0.5"/><rect x="966" y="581.9733333333334" width="529" height="16.091428571428573" rx="8.045714285714286" fill="#87CEEB" opacity="0.5"/><rect x="1505" y="581.9733333333334" width="180.224" height="16.091428571428573" rx="8.045714285714286" fill="#87CEEB" opacity="0.5"/><rect x="1695.224" y="581.9733333333334" width="380" height="16.091428571428573" rx="8.045714285714286" fill="#87CEEB" opacity="0.5"/><rect x="-20" y="603.4285714285714" width="234" height="16.091428571428573" rx="8.045714285714286" fill="#87CEEB" opacity="0.5"/><rect x="224" y="603.4285714285714" width="267" height="16.091428571428573" rx="8.045714285714286" fill="#FA8072" opacity="0.5"/><rect x="501" y="603.4285714285714" width="180.224" height="16.091428571428573" rx="8.045714285714286" fill="#FA8072" opacity="0.5"/><rect x="691.2239999999999" y="603.4285714285714" width="597" height="16.091428571428573" rx="8.045714285714286" fill="#87CEEB" opacity="0.5"/><rect x="1298.224" y="603.4285714285714" width="180.224" height="16.091428571428573" rx="8.045714285714286" fill="#87CEEB" opacity="0.5"/><rect x="1488.4479999999999" y="603.4285714285714" width="180.224" height="16.091428571428573" rx="8.045714285714286" fill="#FA8072" opacity="0.5"/><rect x="1678.6719999999998" y="603.4285714285714" width="280" height="16.091428571428573" rx="8.045714285714286" fill="#87CEEB" opacity="0.5"/><rect x="-20" y="624.8838095238095" width="234" height="16.091428571428573" rx="8.045714285714286" fill="#87CEEB" opacity="0.5"/><rect x="224" y="624.8838095238095" width="363" height="16.091428571428573" rx="8.045714285714286" fill="#FA8072" opacity="0.5"/><rect x="597" y="624.8838095238095" width="379" height="16.091428571428573" rx="8.045714285714286" fill="#FA8072" opacity="0.5"/><rect x="986" y="624.8838095238095" width="401" height="16.091428571428573" rx="8.045714285714286" fill="#FA8072" opacity="0.5"/><rect x="1397" y="624.8838095238095" width="180.224" height="16.091428571428573" rx="8.045714285714286" fill="#87CEEB" opacity="0.5"/><rect x="1587.224" y="624.8838095238095" width="360" height="16.091428571428573" rx="8.045714285714286" fill="#FA8072" opacity="0.5"/><rect x="-20" y="646.3390476190476" width="549" height="16.091428571428573" rx="8.045714285714286" fill="#87CEEB" opacity="0.5"/><rect x="539" y="646.3390476190476" width="180.224" height="16.091428571428573" rx="8.045714285714286" fill="#FA8072" opacity="0.5"/><rect x="729.2239999999999" y="646.3390476190476" width="244" height="16.091428571428573" rx="8.045714285714286" fill="#87CEEB" opacity="0.5"/><rect x="983.2239999999999" y="646.3390476190476" width="570" height="16.091428571428573" rx="8.045714285714286" fill="#FA8072" opacity="0.5"/><rect x="1563.224" y="646.3390476190476" width="380" height="16.091428571428573" rx="8.045714285714286" fill="#87CEEB" opacity="0.5"/><rect x="-20" y="667.7942857142857" width="290" height="16.091428571428573" rx="8.045714285714286" fill="#87CEEB" opacity="0.5"/><rect x="280" y="667.7942857142857" width="356" height="16.091428571428573" rx="8.045714285714286" fill="#FA8072" opacity="0.5"/><rect x="646" y="667.7942857142857" width="180.224" height="16.091428571428573" rx="8.045714285714286" fill="#FA8072" opacity="0.5"/><rect x="836.2239999999999" y="667.7942857142857" width="371" height="16.091428571428573" rx="8.045714285714286" fill="#87CEEB" opacity="0.5"/><rect x="1217.224" y="667.7942857142857" width="180.224" height="16.091428571428573" rx="8.045714285714286" fill="#FA8072" opacity="0.5"/><rect x="1407.4479999999999" y="667.7942857142857" width="180.224" height="16.091428571428573" rx="8.045714285714286" fill="#FA8072" opacity="0.5"/><rect x="1597.6719999999998" y="667.7942857142857" width="372" height="16.091428571428573" rx="8.045714285714286" fill="#87CEEB" opacity="0.5"/><rect x="-20" y="689.2495238095238" width="230" height="16.091428571428573" rx="8.045714285714286" fill="#FA8072" opacity="0.5"/><rect x="220" y="689.2495238095238" width="180.224" height="16.091428571428573" rx="8.045714285714286" fill="#FA8072" opacity="0.5"/><rect x="410.224" y="689.2495238095238" width="454" height="16.091428571428573" rx="8.045714285714286" fill="#87CEEB" opacity="0.5"/><rect x="874.2239999999999" y="689.2495238095238" width="180.224" height="16.091428571428573" rx="8.045714285714286" fill="#87CEEB" opacity="0.5"/><rect x="1064.4479999999999" y="689.2495238095238" width="180.224" height="16.091428571428573" rx="8.045714285714286" fill="#FA8072" opacity="0.5"/><rect x="1254.6719999999998" y="689.2495238095238" width="180.224" height="16.091428571428573" rx="8.045714285714286" fill="#87CEEB" opacity="0.5"/><rect x="1444.8959999999997" y="689.2495238095238" width="467" height="16.091428571428573" rx="8.045714285714286" fill="#87CEEB" opacity="0.5"/><rect x="-20" y="710.7047619047619" width="345" height="16.091428571428573" rx="8.045714285714286" fill="#87CEEB" opacity="0.5"/><rect x="335" y="710.7047619047619" width="287" height="16.091428571428573" rx="8.045714285714286" fill="#FA8072" opacity="0.5"/><rect x="632" y="710.7047619047619" width="573" height="16.091428571428573" rx="8.045714285714286" fill="#87CEEB" opacity="0.5"/><rect x="1215" y="710.7047619047619" width="351" height="16.091428571428573" rx="8.045714285714286" fill="#FA8072" opacity="0.5"/><rect x="1576" y="710.7047619047619" width="507" height="16.091428571428573" rx="8.045714285714286" fill="#FA8072" opacity="0.5"/><rect x="-20" y="732.16" width="483" height="16.091428571428573" rx="8.045714285714286" fill="#FA8072" opacity="0.5"/><rect x="473" y="732.16" width="471" height="16.091428571428573" rx="8.045714285714286" fill="#FA8072" opacity="0.5"/><rect x="954" y="732.16" width="180.224" height="16.091428571428573" rx="8.045714285714286" fill="#87CEEB" opacity="0.5"/><rect x="1144.224" y="732.16" width="213" height="16.091428571428573" rx="8.045714285714286" fill="#FA8072" opacity="0.5"/><rect x="1367.224" y="732.16" width="270" height="16.091428571428573" rx="8.045714285714286" fill="#FA8072" opacity="0.5"/><rect x="1647.224" y="732.16" width="180.224" height="16.091428571428573" rx="8.045714285714286" fill="#87CEEB" opacity="0.5"/><rect x="-20" y="753.615238095238" width="304" height="16.091428571428573" rx="8.045714285714286" fill="#FA8072" opacity="0.5"/><rect x="294" y="753.615238095238" width="282" height="16.091428571428573" rx="8.045714285714286" fill="#87CEEB" opacity="0.5"/><rect x="586" y="753.615238095238" width="180.224" height="16.091428571428573" rx="8.045714285714286" fill="#87CEEB" opacity="0.5"/><rect x="776.2239999999999" y="753.615238095238" width="487" height="16.091428571428573" rx="8.045714285714286" fill="#87CEEB" opacity="0.5"/><rect x="1273.224" y="753.615238095238" width="270" height="16.091428571428573" rx="8.045714285714286" fill="#87CEEB" opacity="0.5"/><rect x="1553.224" y="753.615238095238" width="282" height="16.091428571428573" rx="8.045714285714286" fill="#87CEEB" opacity="0.5"/><rect x="-20" y="775.0704761904761" width="253" height="16.091428571428573" rx="8.045714285714286" fill="#87CEEB" opacity="0.5"/><rect x="243" y="775.0704761904761" width="284" height="16.091428571428573" rx="8.045714285714286" fill="#87CEEB" opacity="0.5"/><rect x="537" y="775.0704761904761" width="180.224" height="16.091428571428573" rx="8.045714285714286" fill="#87CEEB" opacity="0.5"/><rect x="727.2239999999999" y="775.0704761904761" width="180.224" height="16.091428571428573" rx="8.045714285714286" fill="#FA8072" opacity="0.5"/><rect x="917.4479999999999" y="775.0704761904761" width="326" height="16.091428571428573" rx="8.045714285714286" fill="#FA8072" opacity="0.5"/><rect x="1253.4479999999999" y="775.0704761904761" width="180.224" height="16.091428571428573" rx="8.045714285714286" fill="#87CEEB" opacity="0.5"/><rect x="1443.6719999999998" y="775.0704761904761" width="180.224" height="16.091428571428573" rx="8.045714285714286" fill="#87CEEB" opacity="0.5"/><rect x="1633.8959999999997" y="775.0704761904761" width="252" height="16.091428571428573" rx="8.045714285714286" fill="#87CEEB" opacity="0.5"/><rect x="-20" y="796.5257142857142" width="206" height="16.091428571428573" rx="8.045714285714286" fill="#FA8072" opacity="0.5"/><rect x="196" y="796.5257142857142" width="504" height="16.091428571428573" rx="8.045714285714286" fill="#87CEEB" opacity="0.5"/><rect x="710" y="796.5257142857142" width="308" height="16.091428571428573" rx="8.045714285714286" fill="#FA8072" opacity="0.5"/><rect x="1028" y="796.5257142857142" width="180.224" height="16.091428571428573" rx="8.045714285714286" fill="#FA8072" opacity="0.5"/><rect x="1218.224" y="796.5257142857142" width="180.224" height="16.091428571428573" rx="8.045714285714286" fill="#FA8072" opacity="0.5"/><rect x="1408.4479999999999" y="796.5257142857142" width="305" height="16.091428571428573" rx="8.045714285714286" fill="#87CEEB" opacity="0.5"/><rect x="1723.4479999999999" y="796.5257142857142" width="180.224" height="16.091428571428573" rx="8.045714285714286" fill="#87CEEB" opacity="0.5"/><rect x="-20" y="817.9809523809523" width="224" height="16.091428571428573" rx="8.045714285714286" fill="#87CEEB" opacity="0.5"/><rect x="214" y="817.9809523809523" width="378" height="16.091428571428573" rx="8.045714285714286" fill="#87CEEB" opacity="0.5"/><rect x="602" y="817.9809523809523" width="290" height="16.091428571428573" rx="8.045714285714286" fill="#FA8072" opacity="0.5"/><rect x="902" y="817.9809523809523" width="180.224" height="16.091428571428573" rx="8.045714285714286" fill="#87CEEB" opacity="0.5"/><rect x="1092.224" y="817.9809523809523" width="180.224" height="16.091428571428573" rx="8.045714285714286" fill="#87CEEB" opacity="0.5"/><rect x="1282.4479999999999" y="817.9809523809523" width="193" height="16.091428571428573" rx="8.045714285714286" fill="#87CEEB" opacity="0.5"/><rect x="1485.4479999999999" y="817.9809523809523" width="574" height="16.091428571428573" rx="8.045714285714286" fill="#FA8072" opacity="0.5"/><rect x="-20" y="839.4361904761904" width="528" height="16.091428571428573" rx="8.045714285714286" fill="#87CEEB" opacity="0.5"/><rect x="518" y="839.4361904761904" width="406" height="16.091428571428573" rx="8.045714285714286" fill="#FA8072" opacity="0.5"/><rect x="934" y="839.4361904761904" width="341" height="16.091428571428573" rx="8.045714285714286" fill="#FA8072" opacity="0.5"/><rect x="1285" y="839.4361904761904" width="211" height="16.091428571428573" rx="8.045714285714286" fill="#FA8072" opacity="0.5"/><rect x="1506" y="839.4361904761904" width="308" height="16.091428571428573" rx="8.045714285714286" fill="#87CEEB" opacity="0.5"/><rect x="-20" y="860.8914285714285" width="233" height="16.091428571428573" rx="8.045714285714286" fill="#FA8072" opacity="0.5"/><rect x="223" y="860.8914285714285" width="180.224" height="16.091428571428573" rx="8.045714285714286" fill="#87CEEB" opacity="0.5"/><rect x="413.224" y="860.8914285714285" width="391" height="16.091428571428573" rx="8.045714285714286" fill="#87CEEB" opacity="0.5"/><rect x="814.2239999999999" y="860.8914285714285" width="180.224" height="16.091428571428573" rx="8.045714285714286" fill="#87CEEB" opacity="0.5"/><rect x="1004.4479999999999" y="860.8914285714285" width="322" height="16.091428571428573" rx="8.045714285714286" fill="#FA8072" opacity="0.5"/><rect x="1336.4479999999999" y="860.8914285714285" width="496" height="16.091428571428573" rx="8.045714285714286" fill="#87CEEB" opacity="0.5"/><rect x="-20" y="882.3466666666667" width="266" height="16.091428571428573" rx="8.045714285714286" fill="#FA8072" opacity="0.5"/><rect x="256" y="882.3466666666667" width="279" height="16.091428571428573" rx="8.045714285714286" fill="#FA8072" opacity="0.5"/><rect x="545" y="882.3466666666667" width="180.224" height="16.091428571428573" rx="8.045714285714286" fill="#FA8072" opacity="0.5"/><rect x="735.2239999999999" y="882.3466666666667" width="235" height="16.091428571428573" rx="8.045714285714286" fill="#87CEEB" opacity="0.5"/><rect x="980.2239999999999" y="882.3466666666667" width="180.224" height="16.091428571428573" rx="8.045714285714286" fill="#FA8072" opacity="0.5"/><rect x="1170.4479999999999" y="882.3466666666667" width="188" height="16.091428571428573" rx="8.045714285714286" fill="#FA8072" opacity="0.5"/><rect x="1368.4479999999999" y="882.3466666666667" width="381" height="16.091428571428573" rx="8.045714285714286" fill="#FA8072" opacity="0.5"/><rect x="1759.4479999999999" y="882.3466666666667" width="573" height="16.091428571428573" rx="8.045714285714286" fill="#FA8072" opacity="0.5"/></svg>