<svg class="border shadow-md" viewBox="0 0 1802.24 901.12" style="width: 1802.24px; height: 901.12px;" xmlns="http://www.w3.org/2000/svg" preserveAspectRatio="none"><rect class="bg" id="bg" x="0" y="0" width="1802.24" height="901.12" fill="#ffffff"/><defs><filter id="f1" x="-200%" y="-200%" width="500%" height="500%"><feGaussianBlur stdDeviation="25"/></filter></defs><g transform="translate(-212.86282082528305 -541.1960754535403) rotate(6 794.6199671170222 -37.454681482387684 )"><rect x="8" y="8" opacity="0.4" width="6044.8967276538315" height="1007.4827879423052" fill="#5B8" filter="url(#f1)"/><rect x="-8" y="-8" opacity="0.4" width="6044.8967276538315" height="1007.4827879423052" fill="#050b08" filter="url(#f1)"/><rect x="0" y="0" width="6044.8967276538315" height="1007.4827879423052" fill="#5B8"/></g><g transform="translate(-850.3835853248579 304.8225537511054) rotate(18 157.0992026174473 808.563947722258 )"><rect x="8" y="8" opacity="0.4" width="6044.8967276538315" height="1007.4827879423052" fill="#050b08" filter="url(#f1)"/><rect x="-8" y="-8" opacity="0.4" width="6044.8967276538315" height="1007.4827879423052" fill="#050b08" filter="url(#f1)"/><rect x="0" y="0" width="6044.8967276538315" height="1007.4827879423052" fill="#5B8"/></g><g transform="translate(-1851.9998660343067 -40.06158961765061) rotate(20 -844.5170780920016 463.679804353502 )"><rect x="8" y="8" opacity="0.4" width="6044.8967276538315" height="1007.4827879423052" fill="#050b08" filter="url(#f1)"/><rect x="-8" y="-8" opacity="0.4" width="6044.8967276538315" height="1007.4827879423052" fill="#050b08" filter="url(#f1)"/><rect x="0" y="0" width="6044.8967276538315" height="1007.4827879423052" fill="#5B8"/></g><g transform="translate(-1833.5120066984268 -1099.230341605079) rotate(11 -826.0292187561217 -595.4889476339264 )"><rect x="8" y="8" opacity="0.4" width="6044.8967276538315" height="1007.4827879423052" fill="#050b08" filter="url(#f1)"/><rect x="-8" y="-8" opacity="0.4" width="6044.8967276538315" height="1007.4827879423052" fill="#050b08" filter="url(#f1)"/><rect x="0" y="0" width="6044.8967276538315" height="1007.4827879423052" fill="#E6E6E6"/></g><g transform="translate(-820.4696005401777 -1408.9484867863616) rotate(18 187.01318740212753 -905.2070928152091 )"><rect x="8" y="8" opacity="0.4" width="6044.8967276538315" height="1007.4827879423052" fill="#050b08" filter="url(#f1)"/><rect x="-8" y="-8" opacity="0.4" width="6044.8967276538315" height="1007.4827879423052" fill="#050b08" filter="url(#f1)"/><rect x="0" y="0" width="6044.8967276538315" height="1007.4827879423052" fill="#131210"/></g></svg>