<svg xmlns="http://www.w3.org/2000/svg" xmlns:xlink="http://www.w3.org/1999/xlink" width="500" zoomAndPan="magnify" viewBox="0 0 375 374.999991" height="500" preserveAspectRatio="xMidYMid meet" version="1.0"><defs><g/><clipPath id="a066004fb7"><path d="M 133.015625 125.183594 L 241.765625 125.183594 L 241.765625 244.433594 L 133.015625 244.433594 Z M 133.015625 125.183594 " clip-rule="nonzero"/></clipPath><clipPath id="8f2849ddc5"><path d="M 162 243 L 213 243 L 213 255 L 162 255 Z M 162 243 " clip-rule="nonzero"/></clipPath><clipPath id="61edc424b2"><path d="M 187.5 222.828125 L 213.484375 248.8125 L 187.5 274.796875 L 161.515625 248.8125 Z M 187.5 222.828125 " clip-rule="nonzero"/></clipPath><clipPath id="23c01ab1d6"><path d="M 187.5 222.828125 L 213.484375 248.8125 L 187.5 274.796875 L 161.515625 248.8125 Z M 187.5 222.828125 " clip-rule="nonzero"/></clipPath></defs><g clip-path="url(#a066004fb7)"><path fill="#ffffff" d="M 240.761719 148.710938 L 223.070312 138.46875 C 223.402344 137.46875 223.625 136.417969 223.625 135.304688 C 223.625 129.734375 219.109375 125.203125 213.558594 125.203125 C 208.003906 125.203125 203.488281 129.734375 203.488281 135.304688 C 203.488281 140.875 208.003906 145.410156 213.558594 145.410156 C 216.550781 145.410156 219.214844 144.0625 221.0625 141.972656 L 237.738281 151.625 L 237.738281 179.601562 L 213.574219 193.589844 L 189.410156 179.601562 L 189.410156 150.464844 C 189.410156 149.742188 189.027344 149.074219 188.402344 148.714844 L 162.222656 133.558594 C 161.597656 133.199219 160.832031 133.199219 160.207031 133.558594 L 134.027344 148.714844 C 133.40625 149.074219 133.019531 149.742188 133.019531 150.464844 L 133.019531 180.773438 C 133.019531 181.496094 133.40625 182.164062 134.027344 182.523438 L 159.199219 197.09375 L 159.199219 227.242188 C 159.199219 227.964844 159.582031 228.628906 160.203125 228.992188 L 186.386719 244.144531 C 186.699219 244.328125 187.042969 244.417969 187.390625 244.417969 C 187.738281 244.417969 188.089844 244.328125 188.398438 244.144531 L 206.675781 233.558594 C 208.476562 235.265625 210.890625 236.328125 213.558594 236.328125 C 219.109375 236.328125 223.625 231.796875 223.625 226.226562 C 223.625 220.65625 219.109375 216.125 213.558594 216.125 C 208.003906 216.125 203.488281 220.65625 203.488281 226.226562 C 203.488281 227.65625 203.792969 229.015625 204.332031 230.25 L 187.390625 240.0625 L 163.226562 226.074219 L 163.226562 197.097656 L 187.398438 183.105469 L 212.566406 197.671875 C 212.878906 197.851562 213.222656 197.941406 213.574219 197.941406 C 213.921875 197.941406 214.265625 197.851562 214.578125 197.671875 L 240.761719 182.519531 C 241.382812 182.15625 241.765625 181.492188 241.765625 180.769531 L 241.765625 150.460938 C 241.765625 149.738281 241.382812 149.070312 240.761719 148.710938 Z M 213.558594 141.367188 C 210.226562 141.367188 207.515625 138.648438 207.515625 135.304688 C 207.515625 131.964844 210.226562 129.246094 213.558594 129.246094 C 216.886719 129.246094 219.597656 131.964844 219.597656 135.304688 C 219.597656 138.648438 216.886719 141.367188 213.558594 141.367188 Z M 213.558594 220.164062 C 216.886719 220.164062 219.597656 222.882812 219.597656 226.226562 C 219.597656 229.570312 216.886719 232.289062 213.558594 232.289062 C 210.226562 232.289062 207.515625 229.570312 207.515625 226.226562 C 207.515625 222.882812 210.226562 220.164062 213.558594 220.164062 Z M 185.382812 179.605469 L 161.214844 193.59375 L 137.046875 179.605469 L 137.046875 151.632812 L 161.214844 137.644531 L 185.382812 151.632812 Z M 185.382812 179.605469 " fill-opacity="1" fill-rule="nonzero"/></g><g fill="#3eb489" fill-opacity="1"><g transform="translate(166.989655, 221.605973)"><g><path d="M 5.453125 -20.625 L 5.453125 -12.859375 L 18.3125 -12.859375 L 18.3125 -10.3125 L 5.453125 -10.3125 L 5.453125 -2.515625 L 19.859375 -2.515625 L 19.859375 0 L 2.828125 0 L 2.828125 -23.140625 L 19.859375 -23.140625 L 19.859375 -20.625 Z M 5.453125 -20.625 "/></g></g></g><g fill="#3eb489" fill-opacity="1"><g transform="translate(188.243541, 221.605973)"><g><path d="M 19.265625 -20.625 L 11.1875 -20.625 L 11.1875 0 L 8.5625 0 L 8.5625 -20.625 L 0.484375 -20.625 L 0.484375 -23.140625 L 19.265625 -23.140625 Z M 19.265625 -20.625 "/></g></g></g><g clip-path="url(#8f2849ddc5)"><g clip-path="url(#61edc424b2)"><g clip-path="url(#23c01ab1d6)"><path fill="#ffffff" d="M 212.621094 247.945312 L 208.164062 243.492188 C 207.6875 243.011719 206.910156 243.011719 206.433594 243.492188 L 202.335938 247.589844 L 172.664062 247.585938 L 168.566406 243.492188 C 168.089844 243.011719 167.3125 243.011719 166.835938 243.492188 L 162.378906 247.945312 C 161.902344 248.425781 161.902344 249.199219 162.378906 249.679688 L 166.835938 254.132812 C 167.3125 254.613281 168.089844 254.613281 168.566406 254.132812 L 172.664062 250.035156 L 202.335938 250.039062 L 206.433594 254.132812 C 206.910156 254.613281 207.6875 254.613281 208.164062 254.132812 L 212.621094 249.679688 C 213.097656 249.199219 213.097656 248.425781 212.621094 247.945312 Z M 167.699219 251.535156 L 164.976562 248.8125 L 167.699219 246.089844 L 170.421875 248.8125 Z M 207.296875 251.535156 L 204.578125 248.8125 L 207.300781 246.089844 L 210.019531 248.8125 Z M 207.296875 251.535156 " fill-opacity="1" fill-rule="nonzero"/></g></g></g></svg>